<svg xmlns="http://www.w3.org/2000/svg" version="1.1" xmlns:xlink="http://www.w3.org/1999/xlink" xmlns:svgjs="http://svgjs.dev/svgjs" width="1500" height="720" preserveAspectRatio="none" viewBox="0 0 1500 720"><g mask="url(&quot;#SvgjsMask1177&quot;)" fill="none"><rect width="1500" height="720" x="0" y="0" fill="rgba(255, 255, 255, 1)"></rect><path d="M 0,31 C 100,46.8 300,103 500,110 C 700,117 800,69.8 1000,66 C 1200,62.2 1400,86 1500,91L1500 720L0 720z" fill="rgba(255, 255, 255, 1)"></path><path d="M 0,251 C 100,233.2 300,167 500,162 C 700,157 800,221.8 1000,226 C 1200,230.2 1400,191.6 1500,183L1500 720L0 720z" fill="rgba(255, 255, 255, 1)"></path><path d="M 0,430 C 23.2,401.8 69.6,291.2 116,289 C 162.4,286.8 185.6,409.8 232,419 C 278.4,428.2 301.6,346 348,335 C 394.4,324 417.6,366.6 464,364 C 510.4,361.4 533.6,319.8 580,322 C 626.4,324.2 649.6,370.8 696,375 C 742.4,379.2 765.6,343.4 812,343 C 858.4,342.6 881.6,383.8 928,373 C 974.4,362.2 997.6,282.6 1044,289 C 1090.4,295.4 1113.6,399 1160,405 C 1206.4,411 1229.6,317 1276,319 C 1322.4,321 1347.2,407.6 1392,415 C 1436.8,422.4 1478.4,367.8 1500,356L1500 720L0 720z" fill="rgba(255, 255, 255, 1)"></path><path d="M 0,540 C 75,530.6 225,488.6 375,493 C 525,497.4 600,571.8 750,562 C 900,552.2 975,445.2 1125,444 C 1275,442.8 1425,533.6 1500,556L1500 720L0 720z" fill="rgba(12, 56, 107, 1)"></path><path d="M 0,682 C 75,664.6 225,597.2 375,595 C 525,592.8 600,671.8 750,671 C 900,670.2 975,591.8 1125,591 C 1275,590.2 1425,651.8 1500,667L1500 720L0 720z" fill="#2264ab"></path></g><defs><mask id="SvgjsMask1177"><rect width="1500" height="720" fill="#ffffff"></rect></mask></defs></svg>